<svg width="39" height="39" viewBox="0 0 39 39" fill="none" xmlns="http://www.w3.org/2000/svg">
<path d="M9.9375 9.8125C4.59587 15.1541 4.59587 23.8459 9.9375 29.1875C15.2791 34.5291 23.9709 34.5291 29.3125 29.1875C34.6541 23.8459 34.6541 15.1541 29.3125 9.8125C23.9709 4.47087 15.2791 4.47087 9.9375 9.8125ZM25.5865 18.4465C25.7272 18.4429 25.8671 18.4675 25.998 18.5188C26.129 18.5701 26.2484 18.6471 26.3491 18.7453C26.4498 18.8435 26.5299 18.9609 26.5846 19.0905C26.6392 19.2201 26.6674 19.3593 26.6674 19.5C26.6674 19.6407 26.6392 19.7799 26.5846 19.9095C26.5299 20.0391 26.4498 20.1565 26.3491 20.2547C26.2484 20.3529 26.129 20.4299 25.998 20.4812C25.8671 20.5325 25.7272 20.5571 25.5865 20.5535L20.679 20.554L20.6785 25.4615C20.6715 25.7363 20.5574 25.9974 20.3606 26.1892C20.1638 26.3811 19.8998 26.4884 19.625 26.4884C19.3502 26.4884 19.0862 26.3811 18.8894 26.1892C18.6926 25.9974 18.5785 25.7363 18.5715 25.4615L18.571 20.554L13.6635 20.5535C13.3887 20.5465 13.1276 20.4324 12.9358 20.2356C12.7439 20.0388 12.6366 19.7748 12.6366 19.5C12.6366 19.2252 12.7439 18.9612 12.9358 18.7644C13.1276 18.5676 13.3887 18.4535 13.6635 18.4465L18.571 18.446L18.5715 13.5385C18.5785 13.2637 18.6926 13.0026 18.8894 12.8108C19.0862 12.6189 19.3502 12.5116 19.625 12.5116C19.8998 12.5116 20.1638 12.6189 20.3606 12.8108C20.5574 13.0026 20.6715 13.2637 20.6785 13.5385L20.679 18.446L25.5865 18.4465Z" fill="#6941C6"/>
</svg>
