<svg width="27" height="28" viewBox="0 0 27 28" fill="none" xmlns="http://www.w3.org/2000/svg">
<rect width="26.87" height="27.4324" rx="13.435" fill="#6941C6"/>
<path fill-rule="evenodd" clip-rule="evenodd" d="M7.95486 7.98223C7.125 8.71447 7.125 9.89298 7.125 12.25V14.75C7.125 17.107 7.125 18.2855 7.95486 19.0178C8.78473 19.75 10.1204 19.75 12.7917 19.75H14.2083C16.8796 19.75 18.2153 19.75 19.0451 19.0178C19.875 18.2855 19.875 17.107 19.875 14.75V12.25C19.875 9.89298 19.875 8.71447 19.0451 7.98223C18.2153 7.25 16.8796 7.25 14.2083 7.25H12.7917C10.1204 7.25 8.78473 7.25 7.95486 7.98223ZM10.1354 11C10.1354 10.7411 10.3733 10.5312 10.6667 10.5312H16.3333C16.6267 10.5312 16.8646 10.7411 16.8646 11C16.8646 11.2589 16.6267 11.4687 16.3333 11.4687H10.6667C10.3733 11.4687 10.1354 11.2589 10.1354 11ZM10.1354 13.5C10.1354 13.2411 10.3733 13.0312 10.6667 13.0312H16.3333C16.6267 13.0312 16.8646 13.2411 16.8646 13.5C16.8646 13.7589 16.6267 13.9687 16.3333 13.9687H10.6667C10.3733 13.9687 10.1354 13.7589 10.1354 13.5ZM10.6667 15.5312C10.3733 15.5312 10.1354 15.7411 10.1354 16C10.1354 16.2589 10.3733 16.4687 10.6667 16.4687H14.2083C14.5017 16.4687 14.7396 16.2589 14.7396 16C14.7396 15.7411 14.5017 15.5312 14.2083 15.5312H10.6667Z" fill="white"/>
</svg>
