<svg width="131" height="66" viewBox="0 0 131 66" fill="none" xmlns="http://www.w3.org/2000/svg">
<mask id="mask0_242_8225" style="mask-type:alpha" maskUnits="userSpaceOnUse" x="1" y="1" width="129" height="64">
<rect width="128" height="64" transform="translate(1.66602 1)" fill="url(#paint0_linear_242_8225)"/>
</mask>
<g mask="url(#mask0_242_8225)">
<path d="M125.99 61.5642L129.666 65H1.66602V1C2.26015 2.90879 3.49301 12.3174 3.67125 12.3174C3.84949 12.3174 5.00807 4.8236 5.56508 5.96887L10.3553 9.4047L13.1404 23.7702L17.5964 12.2002L19.9358 8.76441L23.2779 23.7702H26.7313L29.6277 15.7533C30.7417 14.608 33.0143 12.3174 33.1926 12.3174C33.3708 12.3174 34.8264 10.0269 35.532 8.88162H37.3144L41.5477 16.5107L45.2239 15.7533L46.8949 23.7702L51.908 27.206L54.4702 30.6418L57.3666 36.3682L60.1517 30.5427H61.3771L64.7191 38.289L67.9497 36.3682L70.7348 30.6418H72.4058L75.3022 38.3881L79.4241 30.6418L83.3231 25.0507L87.2222 36.3682L91.1212 57.2175L94.0176 50.1115L97.1369 53.5473L101.37 50.1115L108.054 56.9831L111.173 53.5473L115.407 61.5642L118.971 56.9831L122.536 61.5642H125.99Z" fill="#FEF3F2"/>
</g>
<path d="M129.666 65L125.99 61.5642H122.536L118.971 56.9831L115.407 61.5642L111.173 53.5473L108.054 56.9831L101.37 50.1115L97.1369 53.5473L94.0176 50.1115L91.1212 57.2175L87.2222 36.3682L83.3231 25.0507L79.4241 30.6418L75.3022 38.3881L72.4058 30.6418H70.7348L67.9497 36.3682L64.7191 38.289L61.3771 30.5427H60.1517L57.3666 36.3682L54.4702 30.6418L51.908 27.206L46.8949 23.7702L45.2239 15.7533L41.5477 16.5107L37.3144 8.88162H35.532C34.8264 10.0269 33.3708 12.3174 33.1926 12.3174C33.0143 12.3174 30.7417 14.608 29.6277 15.7533L26.7313 23.7702H23.2779L19.9358 8.76441L17.5964 12.2002L13.1404 23.7702L10.3553 9.4047L5.56508 5.96887C5.00807 4.8236 3.84949 12.3174 3.67125 12.3174C3.49301 12.3174 2.26015 2.90879 1.66602 1" stroke="#F04438" stroke-width="2" stroke-linecap="round" stroke-linejoin="round"/>
<g opacity="0.2">
<rect x="72.666" y="16" width="20" height="20" rx="10" stroke="#F04438" stroke-width="2"/>
</g>
<rect x="77.666" y="21" width="10" height="10" rx="5" fill="white"/>
<rect x="77.666" y="21" width="10" height="10" rx="5" stroke="#F04438" stroke-width="2"/>
<defs>
<linearGradient id="paint0_linear_242_8225" x1="64" y1="0" x2="64" y2="64" gradientUnits="userSpaceOnUse">
<stop/>
<stop offset="1" stop-opacity="0"/>
</linearGradient>
</defs>
</svg>
