<svg width="131" height="66" viewBox="0 0 131 66" fill="none" xmlns="http://www.w3.org/2000/svg">
<mask id="mask0_242_8203" style="mask-type:alpha" maskUnits="userSpaceOnUse" x="1" y="1" width="129" height="64">
<rect width="128" height="64" transform="translate(1.33301 1)" fill="url(#paint0_linear_242_8203)"/>
</mask>
<g mask="url(#mask0_242_8203)">
<path d="M5.93907 57.2759L1.33301 65H129.333V1L127.515 12.0345H125.091C124.444 13.8736 123.103 17.5517 122.909 17.5517C122.715 17.5517 121.454 19.7586 120.848 20.8621L115.636 24.1724L112.606 28.5862L107.757 24.1724L105.212 20.8621L101.575 28.5862H97.8179L94.6663 20.8621C93.4542 19.7586 90.9815 17.5517 90.7876 17.5517C90.5936 17.5517 89.0098 15.3448 88.2421 14.2414H86.3027L81.6966 17.5517L77.6966 20.8621L75.8785 28.5862L70.4239 31.8966L67.636 35.2069L64.4845 40.7241L61.4542 47.9655H60.1209L56.4845 48.6552L52.9694 40.7241L49.9391 35.2069H48.1209L44.9694 31.8966L40.4845 35.2069H36.2421L31.9997 40.7241L27.7572 47.3448L24.6057 53.9655L21.2118 57.2759L16.6057 53.9655L12.9694 57.2759L9.33301 60.5862L5.93907 57.2759Z" fill="#ECFDF3"/>
</g>
<path d="M1.33301 65L5.93907 57.2759L9.33301 60.5862L12.9694 57.2759L16.6057 53.9655L21.2118 57.2759L24.6057 53.9655L27.7572 47.3448L31.9997 40.7241L36.2421 35.2069H40.4845L44.9694 31.8966L48.1209 35.2069H49.9391L52.9694 40.7241L56.4845 48.6552L60.1209 47.9655H61.4542L64.4845 40.7241L67.636 35.2069L70.4239 31.8966L75.8785 28.5862L77.6966 20.8621L81.6966 17.5517L86.3027 14.2414H88.2421C89.0098 15.3448 90.5936 17.5517 90.7876 17.5517C90.9815 17.5517 93.4542 19.7586 94.6663 20.8621L97.8179 28.5862H101.575L105.212 20.8621L107.757 24.1724L112.606 28.5862L115.636 24.1724L120.848 20.8621C121.454 19.7586 122.715 17.5517 122.909 17.5517C123.103 17.5517 124.444 13.8736 125.091 12.0345H127.515L129.333 1" stroke="#17B26A" stroke-width="2" stroke-linecap="round" stroke-linejoin="round"/>
<g opacity="0.2">
<rect x="76.333" y="5" width="20" height="20" rx="10" stroke="#17B26A" stroke-width="2"/>
</g>
<rect x="81.333" y="10" width="10" height="10" rx="5" fill="white"/>
<rect x="81.333" y="10" width="10" height="10" rx="5" stroke="#17B26A" stroke-width="2"/>
<defs>
<linearGradient id="paint0_linear_242_8203" x1="64" y1="0" x2="64" y2="64" gradientUnits="userSpaceOnUse">
<stop/>
<stop offset="1" stop-opacity="0"/>
</linearGradient>
</defs>
</svg>
